<svg width="51" height="38" viewBox="0 0 51 38" fill="none" xmlns="http://www.w3.org/2000/svg">
<path d="M7.93066 4.35993C7.93066 4.35993 10.7849 3.57893 10.9784 9.94898L14.6068 11.8161C14.6068 11.8161 17.6666 10.3151 20.0371 12.1089C20.0371 12.1089 22.1899 13.915 21.1014 17.1244C21.1014 17.1244 18.6705 22.0911 10.6761 19.321L10.7124 24.2023C10.7124 24.2023 13.0587 25.8741 19.1301 24.8002L22.0085 21.6274C22.0085 21.6274 22.7705 16.9658 26.6286 17.0756C26.6286 17.0756 29.8336 17.3441 29.6038 24.4707L32.2887 27.2043C32.2887 27.2043 35.0462 27.9853 38.094 26.9724V21.2491C38.094 21.2491 30.8616 23.2992 29.5917 14.3421C29.5917 14.3421 29.4707 10.9985 34.5262 11.9259C34.5262 11.9259 36.8725 12.8289 38.0698 12.4018L39.7147 9.94898C39.7147 9.94898 40.8515 3.23724 35.4333 3.15181C35.4333 3.15181 34.0061 1.34575 31.0914 1.87048C31.0914 1.87048 31.2486 12.8167 22.8188 11.2547C22.8188 11.2547 18.7793 10.3761 18.8035 6.42226C18.8035 6.42226 18.5011 1.61422 16.554 0.711182C16.554 0.711182 13.8811 0.918636 13.0708 2.322C13.0708 2.29759 9.96252 1.84608 7.93066 4.35993Z" fill="#4098DF"/>
<path d="M17.957 0.662262C17.957 0.662262 19.6261 1.37005 19.6744 6.17809C19.6744 6.17809 19.5414 10.1807 24.9839 9.90006C24.9839 9.90006 29.6039 9.93667 30.0756 2.01681C30.0756 2.01681 27.306 -0.680086 23.6535 1.10158C23.6535 1.10158 21.537 -0.362804 19.5172 1.28462C19.5293 1.29683 18.6948 0.271761 17.957 0.662262Z" fill="#A9A9A9"/>
<path d="M7.47083 4.83571C7.47083 4.83571 9.99856 4.78689 9.9018 10.8885L14.0381 13.024C14.0381 13.024 18.0897 11.1936 19.5168 13.024C19.5168 13.024 20.9802 14.6471 19.8071 17.2707C19.8071 17.2707 17.6059 21.1879 9.57525 18.0029L9.6962 23.9093C9.6962 23.9093 9.45431 27.0455 8.36582 28.0705L8.30535 27.375C8.30535 27.375 -2.16838 25.4347 0.407722 16.0626C0.407722 16.0626 -1.17664 11.6207 2.43958 9.79019C2.43958 9.79019 4.14488 5.72654 7.1201 5.54349C7.1201 5.54349 7.27732 4.98214 7.47083 4.83571Z" fill="#DC141C"/>
<path d="M10.7361 25.093C10.7361 25.093 10.0951 28.3513 8.8252 29.6082C8.8252 29.6082 10.1072 32.4149 12.1753 32.5858C12.1753 32.5858 14.7756 36.381 19.4682 35.5634C19.4682 35.5634 23.0119 38.0528 27.257 36.381C27.257 36.381 28.6962 37.6501 30.4862 36.9301C30.4862 36.9301 29.9057 32.0733 31.8166 28.6198L28.3455 24.6903C28.3455 24.6903 29.1196 19.1135 26.6402 18.3081C26.6402 18.3081 23.5561 17.6369 22.7821 22.4938L20.1697 25.6544C20.1697 25.6422 14.3644 26.9601 10.7361 25.093Z" fill="#6FB353"/>
<path d="M48.7003 20.6025C48.7003 20.6025 48.93 17.0391 46.6926 13.9029C46.6926 13.9029 46.7531 11.0108 43.2215 9.00945C43.2215 9.00945 43.4513 7.60609 40.343 5.7146C40.343 5.7146 41.1897 8.77759 40.8389 9.92469L39.0006 13.1951C39.0006 13.1951 38.3838 14.0005 34.7313 13.1951C34.7313 13.1951 29.7605 11.6697 31.5867 16.5388C31.5867 16.5388 33.1227 19.8825 36.5454 19.6384C36.5454 19.6384 38.795 19.0283 39.3271 20.2974L39.6537 27.0823C39.6537 27.0823 37.7307 29.1203 32.8083 28.5955C32.8083 28.5955 30.9215 33.8917 31.8286 37.1378C31.8286 37.1378 34.7192 38.4557 38.3112 36.1127C38.3112 36.1127 40.3068 35.2219 41.359 36.0517C41.359 36.0517 42.7498 37.7845 45.0115 37.0401C45.0115 37.0401 48.9663 35.2707 49.9702 26.7651C49.9581 26.7651 50.6474 23.3116 48.7003 20.6025ZM37.4767 17.7713H33.667C33.413 17.7713 33.2074 17.5639 33.2074 17.3076C33.2074 17.0513 33.413 16.8439 33.667 16.8439H37.4767C37.7307 16.8439 37.9363 17.0513 37.9363 17.3076C37.9242 17.5639 37.7307 17.7713 37.4767 17.7713ZM37.4767 15.4649H33.667C33.413 15.4649 33.2074 15.2575 33.2074 15.0012C33.2074 14.7449 33.413 14.5375 33.667 14.5375H37.4767C37.7307 14.5375 37.9363 14.7449 37.9363 15.0012C37.9242 15.2575 37.7307 15.4649 37.4767 15.4649Z" fill="#ED9B18"/>
</svg>
