<svg width="142" height="38" viewBox="0 0 142 38" fill="none" xmlns="http://www.w3.org/2000/svg">
<path d="M66.0198 16.0078C66.0198 14.5069 64.9071 13.7503 62.6696 13.7503C60.4322 13.7503 59.3195 14.5069 59.3195 16.0078V22.7684C59.3195 24.2694 60.4322 25.026 62.6696 25.026V25.0382C64.9071 25.0382 66.0198 24.2816 66.0198 22.7806H68.2572C68.2572 25.7826 66.3947 27.2958 62.6696 27.2958V27.2836C58.9446 27.2836 57.082 25.7826 57.082 22.7684V16.0078C57.082 13.0059 58.9446 11.4927 62.6696 11.4927C66.3947 11.4927 68.2572 12.9937 68.2572 16.0078H66.0198Z" fill="black"/>
<path d="M80.5328 25.0382V27.2957H76.07C72.345 27.2957 70.4824 25.7948 70.4824 22.7806V20.523C70.4824 17.521 72.345 16.0078 76.07 16.0078C79.7951 16.0078 81.6576 17.5088 81.6576 20.523V22.7806H72.7199C72.7199 24.2816 73.8326 25.0382 76.07 25.0382H80.5328ZM79.4323 20.523C79.4323 19.022 78.3196 18.2654 76.0821 18.2654C73.8447 18.2654 72.732 19.022 72.732 20.523H79.4323Z" fill="black"/>
<path d="M83.8955 20.523C83.8955 17.521 85.758 16.0078 89.4831 16.0078V18.2654C87.2457 18.2654 86.133 19.022 86.133 20.523V27.2835H83.8955V20.523Z" fill="black"/>
<path d="M101.771 25.0382V27.2957H97.3083C93.5832 27.2957 91.7207 25.7948 91.7207 22.7806V20.523C91.7207 17.521 93.5832 16.0078 97.3083 16.0078C101.033 16.0078 102.896 17.5088 102.896 20.523V22.7806H93.9582C93.9582 24.2816 95.0708 25.0382 97.3083 25.0382H101.771ZM100.658 20.523C100.658 19.022 99.5458 18.2654 97.3083 18.2654C95.0708 18.2654 93.9582 19.022 93.9582 20.523H100.658Z" fill="black"/>
<path d="M105.133 22.7806V11.5049H107.37V13.7625C107.37 15.2635 108.483 16.0079 110.72 16.0079V16.0201C114.445 16.0201 116.308 17.521 116.308 20.5352V22.7928C116.308 25.7948 114.445 27.308 110.72 27.308C106.995 27.2836 105.133 25.7826 105.133 22.7806ZM114.071 22.7806V20.523C114.071 19.022 112.958 18.2654 110.72 18.2654V18.2532C109.354 18.2532 108.229 18.0458 107.37 17.6431V22.7684C107.37 24.2694 108.483 25.026 110.72 25.026C112.946 25.0382 114.071 24.2816 114.071 22.7806Z" fill="black"/>
<path d="M118.546 20.523C118.546 17.521 120.408 16.0078 124.133 16.0078V18.2654C121.896 18.2654 120.783 19.022 120.783 20.523V27.2835H118.546V20.523Z" fill="black"/>
<path d="M126.358 22.7806V20.523C126.358 17.521 128.221 16.0078 131.946 16.0078C133.313 16.0078 134.437 16.2153 135.296 16.6302V16.0078H137.534V27.2835H135.296V26.6734C134.437 27.0761 133.313 27.2835 131.946 27.2835C128.221 27.2835 126.358 25.7825 126.358 22.7806ZM135.308 20.523C135.308 19.022 134.196 18.2654 131.958 18.2654C129.721 18.2654 128.608 19.022 128.608 20.523V22.7806C128.608 24.2816 129.721 25.0382 131.958 25.0382C134.196 25.0382 135.308 24.2816 135.308 22.7806V20.523Z" fill="black"/>
<path d="M142.009 11.5049V27.2958H139.771V11.5049H142.009Z" fill="black"/>
<path d="M7.93066 4.35968C7.93066 4.35968 10.7849 3.57868 10.9784 9.94873L14.6068 11.8158C14.6068 11.8158 17.6666 10.3148 20.0371 12.1087C20.0371 12.1087 22.1899 13.9148 21.1014 17.1242C21.1014 17.1242 18.6705 22.0909 10.6761 19.3208L10.7124 24.202C10.7124 24.202 13.0587 25.8739 19.1301 24.8L22.0085 21.6272C22.0085 21.6272 22.7705 16.9656 26.6286 17.0754C26.6286 17.0754 29.8336 17.3439 29.6038 24.4705L32.2887 27.204C32.2887 27.204 35.0462 27.985 38.094 26.9722V21.2489C38.094 21.2489 30.8616 23.299 29.5917 14.3419C29.5917 14.3419 29.4707 10.9982 34.5262 11.9256C34.5262 11.9256 36.8725 12.8287 38.0698 12.4016L39.7147 9.94873C39.7147 9.94873 40.8515 3.23699 35.4333 3.15157C35.4333 3.15157 34.0061 1.3455 31.0914 1.87024C31.0914 1.87024 31.2486 12.8165 22.8188 11.2545C22.8188 11.2545 18.7793 10.3758 18.8035 6.42202C18.8035 6.42202 18.5011 1.61397 16.554 0.710938C16.554 0.710938 13.8811 0.918391 13.0708 2.32176C13.0708 2.29735 9.96252 1.84583 7.93066 4.35968Z" fill="#4098DF"/>
<path d="M17.957 0.662018C17.957 0.662018 19.6261 1.3698 19.6744 6.17785C19.6744 6.17785 19.5414 10.1805 24.9839 9.89981C24.9839 9.89981 29.6039 9.93642 30.0756 2.01657C30.0756 2.01657 27.306 -0.68033 23.6535 1.10133C23.6535 1.10133 21.537 -0.363048 19.5172 1.28438C19.5293 1.29658 18.6948 0.271517 17.957 0.662018Z" fill="#A9A9A9"/>
<path d="M7.47083 4.83546C7.47083 4.83546 9.99856 4.78665 9.9018 10.8882L14.0381 13.0238C14.0381 13.0238 18.0897 11.1933 19.5168 13.0238C19.5168 13.0238 20.9802 14.6468 19.8071 17.2705C19.8071 17.2705 17.6059 21.1877 9.57525 18.0027L9.6962 23.909C9.6962 23.909 9.45431 27.0452 8.36582 28.0703L8.30535 27.3747C8.30535 27.3747 -2.16838 25.4344 0.407722 16.0624C0.407722 16.0624 -1.17664 11.6204 2.43958 9.78995C2.43958 9.78995 4.14488 5.72629 7.1201 5.54325C7.1201 5.54325 7.27732 4.9819 7.47083 4.83546Z" fill="#DC141C"/>
<path d="M10.7361 25.0928C10.7361 25.0928 10.0951 28.351 8.8252 29.608C8.8252 29.608 10.1072 32.4147 12.1753 32.5855C12.1753 32.5855 14.7756 36.3807 19.4682 35.5631C19.4682 35.5631 23.0119 38.0526 27.257 36.3807C27.257 36.3807 28.6962 37.6499 30.4862 36.9299C30.4862 36.9299 29.9057 32.073 31.8166 28.6195L28.3455 24.6901C28.3455 24.6901 29.1196 19.1132 26.6402 18.3078C26.6402 18.3078 23.5561 17.6367 22.7821 22.4935L20.1697 25.6541C20.1697 25.6419 14.3644 26.9599 10.7361 25.0928Z" fill="#6FB353"/>
<path d="M48.7003 20.6022C48.7003 20.6022 48.93 17.0389 46.6926 13.9027C46.6926 13.9027 46.7531 11.0105 43.2215 9.00921C43.2215 9.00921 43.4513 7.60585 40.343 5.71436C40.343 5.71436 41.1897 8.77735 40.8389 9.92445L39.0006 13.1949C39.0006 13.1949 38.3838 14.0003 34.7313 13.1949C34.7313 13.1949 29.7605 11.6695 31.5867 16.5386C31.5867 16.5386 33.1227 19.8822 36.5454 19.6382C36.5454 19.6382 38.795 19.028 39.3271 20.2971L39.6537 27.0821C39.6537 27.0821 37.7307 29.12 32.8083 28.5953C32.8083 28.5953 30.9215 33.8915 31.8286 37.1375C31.8286 37.1375 34.7192 38.4554 38.3112 36.1124C38.3112 36.1124 40.3068 35.2216 41.359 36.0514C41.359 36.0514 42.7498 37.7843 45.0115 37.0399C45.0115 37.0399 48.9663 35.2704 49.9702 26.7648C49.9581 26.7648 50.6474 23.3113 48.7003 20.6022ZM37.4767 17.7711H33.667C33.413 17.7711 33.2074 17.5636 33.2074 17.3074C33.2074 17.0511 33.413 16.8436 33.667 16.8436H37.4767C37.7307 16.8436 37.9363 17.0511 37.9363 17.3074C37.9242 17.5636 37.7307 17.7711 37.4767 17.7711ZM37.4767 15.4647H33.667C33.413 15.4647 33.2074 15.2572 33.2074 15.001C33.2074 14.7447 33.413 14.5372 33.667 14.5372H37.4767C37.7307 14.5372 37.9363 14.7447 37.9363 15.001C37.9242 15.2572 37.7307 15.4647 37.4767 15.4647Z" fill="#ED9B18"/>
</svg>
