<svg width="27" height="24" viewBox="0 0 27 24" fill="none" xmlns="http://www.w3.org/2000/svg">
<path d="M18.8677 2H8.19612C5.24926 2 2.86035 4.23858 2.86035 7V17C2.86035 19.7614 5.24926 22 8.19612 22H18.8677C21.8145 22 24.2034 19.7614 24.2034 17V7C24.2034 4.23858 21.8145 2 18.8677 2Z" stroke="white" stroke-width="2" stroke-linecap="round" stroke-linejoin="round"/>
<path d="M17.8006 11.3701C17.9323 12.2023 17.7806 13.0523 17.3671 13.7991C16.9536 14.5459 16.2993 15.1515 15.4973 15.5297C14.6953 15.908 13.7865 16.0397 12.9 15.906C12.0136 15.7723 11.1947 15.3801 10.5598 14.7852C9.92495 14.1903 9.50643 13.4229 9.36379 12.5923C9.22115 11.7616 9.36165 10.91 9.76531 10.1584C10.169 9.40691 10.8152 8.7938 11.6122 8.4063C12.4091 8.0188 13.3162 7.87665 14.2043 8.00006C15.1103 8.12594 15.949 8.52152 16.5966 9.12836C17.2441 9.73521 17.6663 10.5211 17.8006 11.3701Z" stroke="white" stroke-width="2" stroke-linecap="round" stroke-linejoin="round"/>
<path d="M19.4014 6.5H19.4125" stroke="white" stroke-width="2" stroke-linecap="round" stroke-linejoin="round"/>
</svg>
