<svg width="27" height="24" viewBox="0 0 27 24" fill="none" xmlns="http://www.w3.org/2000/svg">
<path d="M25.1336 3.00005C24.1117 3.67552 22.9802 4.19216 21.7828 4.53005C21.1401 3.83756 20.2859 3.34674 19.3358 3.12397C18.3857 2.90121 17.3856 2.95724 16.4706 3.2845C15.5556 3.61176 14.7699 4.19445 14.2198 4.95376C13.6698 5.71308 13.3818 6.61238 13.3949 7.53005V8.53005C11.5196 8.57561 9.66126 8.18586 7.98555 7.39549C6.30983 6.60513 4.86872 5.43868 3.79056 4.00005C3.79056 4.00005 -0.478056 13 9.12632 17C6.92855 18.398 4.31043 19.099 1.65625 19C11.2606 24 22.9993 19 22.9993 7.50005C22.9983 7.2215 22.9698 6.94364 22.9139 6.67005C24.0031 5.66354 24.7717 4.39276 25.1336 3.00005Z" fill="white"/>
</svg>
