<svg width="27" height="24" viewBox="0 0 27 24" fill="none" xmlns="http://www.w3.org/2000/svg">
<path fill-rule="evenodd" clip-rule="evenodd" d="M24.1669 5.15941C24.5304 5.51057 24.7886 5.94541 24.9153 6.42C25.2539 8.1787 25.4182 9.96295 25.4062 11.75C25.413 13.5103 25.2486 15.2676 24.9153 17C24.7886 17.4746 24.5304 17.9094 24.1669 18.2606C23.8034 18.6118 23.3474 18.8668 22.845 19C21.0095 19.46 13.6675 19.46 13.6675 19.46C13.6675 19.46 6.3255 19.46 4.49 19C3.99785 18.8738 3.54875 18.6308 3.18609 18.2945C2.82343 17.9581 2.55948 17.5398 2.41972 17.08C2.08119 15.3213 1.91686 13.537 1.92883 11.75C1.91948 9.97631 2.0838 8.20556 2.41972 6.46C2.54649 5.98541 2.80466 5.55057 3.16817 5.19941C3.53167 4.84824 3.98764 4.59318 4.49 4.46C6.3255 4 13.6675 4 13.6675 4C13.6675 4 21.0095 4 22.845 4.42C23.3474 4.55318 23.8034 4.80824 24.1669 5.15941ZM17.403 11.75L11.2669 15.02V8.48003L17.403 11.75Z" fill="white"/>
</svg>
